<?xml version="1.0" encoding="utf-8"?>
<!-- Generator: Adobe Illustrator 22.1.0, SVG Export Plug-In . SVG Version: 6.00 Build 0)  -->
<svg version="1.1" id="Layer_1" xmlns="http://www.w3.org/2000/svg" xmlns:xlink="http://www.w3.org/1999/xlink" x="0px" y="0px"
	 viewBox="0 0 90 72" style="enable-background:new 0 0 90 72;" xml:space="preserve">
<g>
	<path d="M25.8,72c7.5,0,14.5-3.3,19.2-8.7c4.8,5.4,11.7,8.7,19.2,8.7C78.2,72,89.7,60.7,90,46.7
		c0.1-3.6-2.8-6.6-6.4-6.7c-3.7-0.1-6.6,2.8-6.7,6.4c-0.1,6.9-5.8,12.4-12.7,12.4c-5.8,0-10.9-3.9-12.3-9.6
		c-0.2-0.9-0.4-1.9-0.4-2.9c0-0.1,0-0.2,0-0.3l0,0c0-2.2,0.6-4.4,1.8-6.2l7.7-12.1c2.2-3.4-0.3-7.8-4.3-7.8H33.2
		c-4,0-6.4,4.4-4.3,7.8L36.6,40c1.2,1.9,1.8,4,1.8,6.2v0v0c0,0.1,0,0.2,0,0.3c0,1-0.1,1.9-0.4,2.8c-1.5,5.6-6.5,9.6-12.3,9.6
		c-6.9,0-12.6-5.6-12.7-12.4C13,42.9,10,40,6.4,40.1c-3.6,0.1-6.5,3.1-6.4,6.7C0.3,60.7,11.8,72,25.8,72z"/>
	<circle  cx="9.4" cy="9.3" r="9.3"/>
	<circle  cx="80.6" cy="9.3" r="9.3"/>
</g>
</svg>